<svg id="Слой_2" data-name="Слой 2" xmlns="http://www.w3.org/2000/svg" viewBox="0 0 103.4 100"><defs><style>.cls-1{fill:#_color_;}.cls-1,.cls-3,.cls-5,.cls-6,.cls-8{stroke:#1b1f3a;}.cls-1,.cls-3,.cls-5,.cls-6,.cls-7,.cls-8{stroke-miterlimit:10;stroke-width:2px;}.cls-2{fill:#53354a;}.cls-3,.cls-4{fill:#a64942;}.cls-5,.cls-6,.cls-7{fill:none;}.cls-6,.cls-7,.cls-8{stroke-linecap:round;}.cls-7{stroke:#a64942;}.cls-8{fill:#cc3609;}</style></defs><title>тыковка</title><path class="cls-1" d="M354.7,144.9l-3.5.2a33.4,33.4,0,0,0-29.4-.1h-1.9c-18.4,0-33.3,16.4-33.3,36.6s14.9,36.6,33.3,36.6h1.9a33.4,33.4,0,0,0,29.4-.1l3.5.2c18.4,0,33.3-16.4,33.3-36.6S373.1,144.9,354.7,144.9Z" transform="translate(-285.5 -122.3)"/><path class="cls-2" d="M317.2,177.4s-6.9-3.6-5.2-12.4,10.7-8.2,10.7-8.2l4.4,5,.4,5.3-2.8,6.4-3.5,3Z" transform="translate(-285.5 -122.3)"/><path class="cls-3" d="M344.2,141.7a18.9,18.9,0,0,1,6.5-9.4c5.3-4.2,3.4-5.5,3.4-5.5-1.8-3.7-7.1-3.6-9.6-3.3a3.2,3.2,0,0,0-2.1,1.2c-6.8,8.2-6.5,16.5-6.5,16.5" transform="translate(-285.5 -122.3)"/><path class="cls-4" d="M323.2,156.8a9.3,9.3,0,0,0-5.2,1.6c-4.7,3.1-6.3,9.9-3.4,15.1a10.5,10.5,0,0,0,3.6,3.9s2.8,1.1,0,1.1-9.1-2.3-9.6-2.8-3.5-8-3.5-8l1.2-5.9,3.2-4.2,4.6-2.4h4.4l3,.5Z" transform="translate(-285.5 -122.3)"/><path class="cls-5" d="M326,160.1a12.8,12.8,0,0,1-4.3,16.4,10.5,10.5,0,0,1-15.2-3.6,12.8,12.8,0,0,1,4.3-16.4A10.5,10.5,0,0,1,326,160.1Z" transform="translate(-285.5 -122.3)"/><path class="cls-2" d="M357.2,177.5s-6.9-3.6-5.2-12.4,10.7-8.2,10.7-8.2l4.4,5,.4,5.3-2.8,6.4-3.5,3Z" transform="translate(-285.5 -122.3)"/><path class="cls-4" d="M363.1,156.9a9.3,9.3,0,0,0-5.2,1.6c-4.7,3.1-6.3,9.9-3.4,15.1a10.5,10.5,0,0,0,3.6,3.9s2.8,1.1,0,1.1-9.1-2.3-9.6-2.8-3.5-8-3.5-8l1.2-5.9,3.2-4.2,4.6-2.4h4.4l3,.5Z" transform="translate(-285.5 -122.3)"/><g id="Слой_3" data-name="Слой 3"><path class="cls-2" d="M304,187.5l6.1-1.6,6.6,11.7a2.1,2.1,0,0,0,3.2-.3c1.5-1.8,7.3-12,7.3-12h19.3l7.7,12.4s1.3,1.9,3.3,0,7.2-11.7,7.2-11.7l4.9,1a35.2,35.2,0,0,1-2.9,6.1c-1.3,1.7-8.6,9.1-8.6,9.1s-10.5,5.9-13.6,6.5-9,.8-9,.8L324.5,207l-7.5-4.2-8.3-8.1Z" transform="translate(-285.5 -122.3)"/></g><path class="cls-5" d="M366,160.2a12.8,12.8,0,0,1-4.3,16.4,10.5,10.5,0,0,1-15.2-3.6,12.8,12.8,0,0,1,4.3-16.4A10.5,10.5,0,0,1,366,160.2Z" transform="translate(-285.5 -122.3)"/><path class="cls-6" d="M338,185.1" transform="translate(-285.5 -122.3)"/><path class="cls-6" d="M327.5,185.2" transform="translate(-285.5 -122.3)"/><path class="cls-6" d="M337.2,209.4c15,0,26.3-10.1,32-20.8a1.5,1.5,0,0,0-1.1-2.1l-4.2-.6" transform="translate(-285.5 -122.3)"/><path class="cls-6" d="M363.9,185.9,358,196.2a2.8,2.8,0,0,1-4.9,0l-6.3-11" transform="translate(-285.5 -122.3)"/><path class="cls-6" d="M337.2,209.3" transform="translate(-285.5 -122.3)"/><path class="cls-6" d="M336.4,185.1" transform="translate(-285.5 -122.3)"/><path class="cls-6" d="M346.8,185.2" transform="translate(-285.5 -122.3)"/><path class="cls-6" d="M355.1,197.6" transform="translate(-285.5 -122.3)"/><path class="cls-6" d="M317.6,197.6" transform="translate(-285.5 -122.3)"/><path class="cls-6" d="M335.9,185.1" transform="translate(-285.5 -122.3)"/><path class="cls-6" d="M346.3,185.2" transform="translate(-285.5 -122.3)"/><path class="cls-6" d="M336.7,209.4c-15,0-26.3-10.1-32-20.8a1.5,1.5,0,0,1,1.1-2.1l4.2-.6" transform="translate(-285.5 -122.3)"/><path class="cls-6" d="M310,185.9l5.9,10.3a2.8,2.8,0,0,0,4.9,0l6.3-11" transform="translate(-285.5 -122.3)"/><path class="cls-6" d="M336.7,209.3" transform="translate(-285.5 -122.3)"/><path class="cls-6" d="M337.5,185.1" transform="translate(-285.5 -122.3)"/><path class="cls-6" d="M327.1,185.2" transform="translate(-285.5 -122.3)"/><path class="cls-6" d="M318.8,197.6" transform="translate(-285.5 -122.3)"/><path class="cls-6" d="M356.2,197.6" transform="translate(-285.5 -122.3)"/><path class="cls-6" d="M348,123.3l-2,2.9c-.2.3.1.7.4.6l4.9-2.6" transform="translate(-285.5 -122.3)"/><line class="cls-6" x1="36.5" y1="22.7" x2="34" y2="25.9"/><line class="cls-6" x1="65.9" y1="22.8" x2="67.7" y2="25.9"/><line class="cls-6" x1="65.9" y1="95.5" x2="68.5" y2="93.2"/><line class="cls-6" x1="36.5" y1="95.7" x2="32.3" y2="93.2"/><line class="cls-7" x1="12.3" y1="55.7" x2="8" y2="59.6"/><line class="cls-7" x1="18.2" y1="53.8" x2="15.8" y2="55.9"/><line class="cls-7" x1="84.3" y1="55.7" x2="80.1" y2="59.6"/><line class="cls-7" x1="90.2" y1="53.8" x2="87.9" y2="55.9"/><path class="cls-6" d="M375.6,169" transform="translate(-285.5 -122.3)"/><line class="cls-6" x1="60.8" y1="62.9" x2="41.5" y2="62.9"/><path class="cls-8" d="M205.5,152.6" transform="translate(-285.5 -122.3)"/></svg>